<?xml version="1.0" encoding="utf-8"?>
<!-- Generator: Adobe Illustrator 27.1.1, SVG Export Plug-In . SVG Version: 6.00 Build 0)  -->
<svg version="1.1" xmlns="http://www.w3.org/2000/svg" xmlns:xlink="http://www.w3.org/1999/xlink" x="0px" y="0px"
	 viewBox="0 0 3710 3710" style="enable-background:new 0 0 3710 3710;" xml:space="preserve">
<style type="text/css">
	.st0{fill:url(#SVGID_1_);}
	.st1{clip-path:url(#SVGID_00000167355446984117373950000001808952650736189599_);}
	.st2{fill:#FCFDFE;}
	
		.st3{clip-path:url(#SVGID_00000028306341636367148400000017643250070304386214_);fill:url(#SVGID_00000152257665143730319920000004986886035018094243_);}
	.st4{clip-path:url(#SVGID_00000028306341636367148400000017643250070304386214_);}
	.st5{fill:#BEB8F2;}
	.st6{fill:url(#SVGID_00000010994672603680595550000009155945099397959606_);}
	.st7{fill:url(#SVGID_00000030473421266441750630000012204364446470608805_);}
	.st8{fill:url(#SVGID_00000143578324583526301590000013336004332990073771_);}
	.st9{fill:url(#SVGID_00000041998711521853960200000008191125481951146154_);}
	.st10{fill:url(#SVGID_00000086650947609259054470000015093854239524844470_);}
	.st11{fill:#FFFFFF;}
	.st12{fill:url(#SVGID_00000080910765033978862100000010634142923675894912_);}
	.st13{fill:url(#SVGID_00000161613486415551587280000004332441827951694726_);}
	.st14{opacity:0.68;}
	.st15{opacity:0.68;fill:#FFFFFF;}
	.st16{fill:url(#SVGID_00000152946871168486865960000007058242847159976383_);}
	.st17{fill:url(#SVGID_00000102523598691551730840000008579413908832783783_);}
	.st18{opacity:0.3;fill:url(#SVGID_00000110465434447859851700000010784426112423842433_);}
	.st19{fill:url(#SVGID_00000071531096395273455830000005442519531592641420_);}
	.st20{fill:url(#SVGID_00000064342589476478955920000003791977343589659264_);}
	.st21{fill:#26264F;}
	.st22{fill:url(#SVGID_00000013882707669164405770000002940968509200491937_);}
	.st23{fill:url(#SVGID_00000118371908908408378270000006417665168406368931_);}
	.st24{fill:url(#SVGID_00000132792206665966973630000014916803255557876927_);}
	.st25{fill:url(#SVGID_00000031917225372683243090000000371612420861803178_);}
	.st26{fill:url(#SVGID_00000078759467789423116820000006014280266909329033_);}
	.st27{fill:url(#SVGID_00000121991364077366823860000004069676300422267013_);}
	.st28{fill:url(#SVGID_00000152250458688484242900000000460054513455742895_);}
	.st29{fill:url(#SVGID_00000126297419109462462760000016218977115010501028_);}
	.st30{fill:url(#SVGID_00000037651432922118044800000003916410004254080658_);}
	.st31{fill:url(#SVGID_00000065053985557133674480000003197142519058683061_);}
	.st32{opacity:0.48;}
</style>
<g id="Background">
	<g>
	</g>
</g>
<g id="Illustration">
	<g>
		<g>
			<g>
				
					<linearGradient id="SVGID_1_" gradientUnits="userSpaceOnUse" x1="-2855.2727" y1="-3583.6445" x2="-2296.3125" y2="-10.2811" gradientTransform="matrix(-0.1307 -0.9914 -0.9914 0.1307 -784.7887 -980.681)">
					<stop  offset="0" style="stop-color:#FFC444"/>
					<stop  offset="0.9964" style="stop-color:#F36F56"/>
				</linearGradient>
				<path class="st0" d="M1317.54,1584.57c-12.18-16.43-24.2-62.93-22.34-76.34c12.4-89.25,24.77-257.87,97.15-319.8
					c12.36-10.58,73.57,31.25,91.36,28.24c45.5,17.19,60.21,25.98,111.49,21.08c151.4-14.47,162.84-324.97,393.56-198.7
					c169,92.5,231.09,248.29,422.96,36.06c191.87-212.22,723.5-409.95,789.14-54.76c37.67,203.85-258.95,245.72-326.18,434.01
					c-63.88,178.92-214.79,224.12-413.69,164.76s-188.47,64.62-268.49,214.59c-96.12,180.15-328.12-11.17-427.7-108.63
					C1684.64,1646.6,1427.51,1500.84,1317.54,1584.57z"/>
				<g>
					<defs>
						<path id="SVGID_00000003104150865702992910000008023741343729369996_" d="M1378.18,1138.29
							c-66.21,124.07-138.7,247.58-206.06,372.16c50.81,62.11,112.09,133.93,195.2,78.47c115.55-77.11,318.14,57.31,397.84,136.16
							c98.64,97.59,331.47,288.71,427.38,108.62c79.85-149.92,69.61-273.96,268.47-214.58s349.76,14.15,413.68-164.77
							c67.26-188.28,363.77-230.1,326.17-434c-65.51-355.29-597.54-157.3-789.03,54.72s-255.2,57.01-422.77-36.15
							c-228.77-127.19-247.38,186.61-391.49,197.56C1484.62,1245.06,1456.64,1193.01,1378.18,1138.29z"/>
					</defs>
					<clipPath id="SVGID_00000020393445436152981910000011092862587583980423_">
						<use xlink:href="#SVGID_00000003104150865702992910000008023741343729369996_"  style="overflow:visible;"/>
					</clipPath>
					<g style="clip-path:url(#SVGID_00000020393445436152981910000011092862587583980423_);">
						<path class="st2" d="M1339.64,1355.84l1.5-4.08c629.28,230.28,1326.99,62.25,1866.37-449.47l3,3.16
							c-255.63,242.52-558.57,414.04-876.06,496.01C2000.66,1487.62,1656.66,1471.85,1339.64,1355.84z"/>
						<path class="st2" d="M2161.16,1913.17c-79.64-165.07-280.56-375.97-447.88-470.11l2.13-3.79
							c167.98,94.52,369.7,306.26,449.67,472.01L2161.16,1913.17z"/>
						<path class="st2" d="M1463.69,1399.63l0.31-4.34c99.55,6.98,198.81-36.64,295.01-129.64
							c70.54-68.19,137.83-160.86,199.99-275.43l3.82,2.08c-62.38,114.96-129.93,207.98-200.79,276.48
							C1664.9,1362.67,1564.53,1406.7,1463.69,1399.63z"/>
						<path class="st2" d="M2379.06,1388.06l0.08-4.35c188.33,3.5,349.15,119.14,450.91,215.52l-2.99,3.16
							C2725.86,1506.53,2565.99,1391.54,2379.06,1388.06z"/>
						<path class="st2" d="M2777.98,1224.39l-2.78-3.34c163.1-135.75,212.97-352.84,228.18-470.16l4.32,0.56
							C2992.39,869.4,2942.21,1087.68,2777.98,1224.39z"/>
					</g>
				</g>
			</g>
		</g>
		<g>
			<g>
				<defs>
					<path id="SVGID_00000049904842365322232460000006426633566365092018_" d="M1003.39,2797.32
						c-102.35-64.63-203.48-131.73-303.3-201.26c-2.49,0.82,67.11-253.08,235.49-327.79c330.73-142.7,276.34-426.46,290.38-574.08
						c11.63-211.79,144.55-416.56,325.96-286.76c178.81,121.79,385.87-265.68,489.07-589.15
						c37.91-162.89,260.39-282.31,420.26-261.27c164.81,17.85,267.02,176.15,178.47,495.08
						c-86.8,376.24-432.42,473.15-603.11,605.41c-167.78,129.74-14.56,362.81-254.13,437.47
						c-204.69,69.97-430.43,85.43-438.29,283.8C1339,2576.06,1262.1,2705.13,1003.39,2797.32z"/>
				</defs>
				<clipPath id="SVGID_00000001655849324287780240000002396700014258922687_">
					<use xlink:href="#SVGID_00000049904842365322232460000006426633566365092018_"  style="overflow:visible;"/>
				</clipPath>
				
					<linearGradient id="SVGID_00000062875372631050723070000017169915057457013678_" gradientUnits="userSpaceOnUse" x1="1648.855" y1="-533.9409" x2="788.8935" y2="1910.1626" gradientTransform="matrix(-0.5913 -0.8064 -0.8064 0.5913 2984.4851 2251.2544)">
					<stop  offset="0" style="stop-color:#AA80F9"/>
					<stop  offset="0.9964" style="stop-color:#6165D7"/>
				</linearGradient>
				
					<path style="clip-path:url(#SVGID_00000001655849324287780240000002396700014258922687_);fill:url(#SVGID_00000062875372631050723070000017169915057457013678_);" d="
					M1003.39,2797.32c-102.35-64.63-203.48-131.73-303.3-201.26c-2.49,0.82,67.11-253.08,235.49-327.79
					c330.73-142.7,276.34-426.46,290.38-574.08c12.26-211.35,135.02-391.69,320.72-312.85c207.74,83.44,394.88-238.66,494.31-563.05
					c37.91-162.89,260.39-282.31,420.26-261.27c164.81,17.85,267.02,176.15,178.47,495.08c-86.8,376.24-432.42,473.15-603.11,605.41
					c-167.78,129.74-14.56,362.81-254.13,437.47c-204.69,69.97-430.43,85.43-438.29,283.8
					C1339,2576.06,1262.1,2705.13,1003.39,2797.32z"/>
				<g style="clip-path:url(#SVGID_00000001655849324287780240000002396700014258922687_);">
					<path class="st5" d="M845.21,2744.05c0.91-2.13,327.5-456.58,724.12-864.13c59.86-67.83,122.21-135.42,182.5-200.78
						c335.78-364,652.95-707.81,704.07-1223.79l7.18,0.71c-51.37,518.39-369.32,863.06-705.95,1227.97
						c-60.27,65.33-122.59,132.89-182.52,200.79c-398.77,409.76-721.2,859.37-722.89,862.31L845.21,2744.05z"/>
					<path class="st5" d="M2060.61,1340.77l-2.94-6.58c182.12-81.49,414.8-208.93,539.8-277.39
						c101.17-55.41,101.44-55.26,104.56-53.23l-1.95,3.03l0.27,3.53c-4.65,1.09-46.47,23.99-99.42,52.99
						C2475.85,1131.63,2243.01,1259.15,2060.61,1340.77z"/>
					<path class="st5" d="M2178.34,1169.74c43.42-165.79,25.02-295.82,1.93-375.71c-25.15-87.02-62.43-138.43-68.12-142.28
						l1.57-2.32l-0.78-4.47c2.13-0.37,3.8,0.93,6.13,3.47c33.42,36.33,142.6,231.6,66.24,523.13L2178.34,1169.74z"/>
					<path class="st5" d="M1326.96,2154.48l-6.2-3.68c173.96-293.05,91.8-674.84,48.39-825.39c-2.33-8.09-3.08-10.71-3.21-11.97
						l7.17-0.78l-3.58,0.39l3.58-0.41c0.13,0.89,1.45,5.47,2.98,10.77c31.3,108.57,50.31,216.54,56.49,320.9
						C1444.43,1844.8,1408.9,2016.44,1326.96,2154.48z"/>
					<path class="st5" d="M1443.43,2024.47l-4.07-5.95c224.94-153.67,507.74-46.64,512-44.15c0.02,0.01,0.03,0.02,0.04,0.03
						l1.09,4.17l-3.69,2.24l0.33-3.56l-1.67,3.14C1944.88,1979.16,1666.13,1872.34,1443.43,2024.47z M1949.47,1973.62l-0.33,3.58
						L1949.47,1973.62z"/>
					<path class="st5" d="M899.75,2670.33c30.14-61.75,55.11-178.77,2.99-385.51c-2.96-11.73-2.96-11.73-1.96-13.32l6.11,3.84
						l-3.05-1.92l3.58-0.04c0.09,0.84,1.13,4.94,2.32,9.69c52.66,208.86,27.16,327.6-3.5,390.44L899.75,2670.33z"/>
					<path class="st5" d="M986.44,2567.46l-5.52-4.64c82.1-97.61,274.68-110.25,382.17-109.1c3.41,0.04,5.6,0.07,6.41,0.02l0.41,7.2
						c-0.87,0.05-3.23,0.03-6.9-0.01C1256.8,2459.79,1066.64,2472.12,986.44,2567.46z"/>
				</g>
			</g>
		</g>
		<g>
			
				<linearGradient id="SVGID_00000054983641109139267630000005692487417468780441_" gradientUnits="userSpaceOnUse" x1="756.9026" y1="2009.0902" x2="1219.1764" y2="1960.7928">
				<stop  offset="3.597000e-03" style="stop-color:#26264F"/>
				<stop  offset="1" style="stop-color:#444B8C"/>
			</linearGradient>
			<path style="fill:url(#SVGID_00000054983641109139267630000005692487417468780441_);" d="M566.42,2970.17
				c-55.23,3.23-100.37-35.38-100.37-86.07V1057.06c0-50.69,45.14-90.3,100.37-88.29l2606.76,94.59
				c42.23,1.53,76.45,38.61,76.45,82.65v1587.51c0,44.05-34.22,81.88-76.45,84.35L566.42,2970.17z"/>
			
				<linearGradient id="SVGID_00000142172087058818848950000017799393158900515741_" gradientUnits="userSpaceOnUse" x1="1742.3278" y1="3421.3574" x2="1840.27" y2="3281.0618">
				<stop  offset="0" style="stop-color:#444B8C"/>
				<stop  offset="0.9964" style="stop-color:#26264F"/>
			</linearGradient>
			<path style="fill:url(#SVGID_00000142172087058818848950000017799393158900515741_);" d="M2265.92,3172.39
				c-41.67-14.5-72.81-51.6-81.59-97.2l-60.64-314.9l-518.75,19.33l-63.84,328.05c-8.94,45.94,26.85,92.04,68.07,108.96
				l217.03,89.09c40.37,16.57,83.76,23.17,126.88,19.3l458.67-41.17c13.41-1.2,24.16-12.26,25.72-26.45
				c1.56-14.19,10.95-30.12-1.83-34.57L2265.92,3172.39z"/>
			
				<linearGradient id="SVGID_00000034791057278907934290000012780536719362701235_" gradientUnits="userSpaceOnUse" x1="2038.8148" y1="3385.3931" x2="1888.9167" y2="2571.6626">
				<stop  offset="0" style="stop-color:#444B8C"/>
				<stop  offset="0.9964" style="stop-color:#26264F"/>
			</linearGradient>
			<path style="fill:url(#SVGID_00000034791057278907934290000012780536719362701235_);" d="M2271.05,3153.24
				c-41.62-14.32-72.73-50.95-81.51-95.98l-60.58-310.94l-506.1,19.1l-63.78,323.93c-8.93,45.37,14.7,90.86,55.88,107.57
				l216.82,87.97c40.33,16.36,83.67,22.88,126.76,19.06l458.21-40.65c13.39-1.19,24.14-12.11,25.7-26.12
				c1.56-14.01-6.5-27.23-19.27-31.62L2271.05,3153.24z"/>
			<g>
				<g>
					
						<linearGradient id="SVGID_00000025424881726621223500000001826209259539569837_" gradientUnits="userSpaceOnUse" x1="2408.5913" y1="1139.0378" x2="3158.7261" y2="68.4225">
						<stop  offset="0" style="stop-color:#444B8C"/>
						<stop  offset="0.9964" style="stop-color:#26264F"/>
					</linearGradient>
					<path style="fill:url(#SVGID_00000025424881726621223500000001826209259539569837_);" d="M587.06,2970.17
						c-55.22,3.23-100.37-35.38-100.37-86.07V1057.06c0-50.69,45.14-90.3,100.37-88.29l2606.76,94.59
						c42.23,1.53,76.45,38.61,76.45,82.65v1587.51c0,44.05-34.22,81.88-76.45,84.35L587.06,2970.17z"/>
					
						<linearGradient id="SVGID_00000132067543816383885640000017214791992573157769_" gradientUnits="userSpaceOnUse" x1="2082.7844" y1="1266.1569" x2="1144.4646" y2="4246.3887">
						<stop  offset="0" style="stop-color:#444B8C"/>
						<stop  offset="0.9964" style="stop-color:#26264F"/>
					</linearGradient>
					<path style="fill:url(#SVGID_00000132067543816383885640000017214791992573157769_);" d="M3193.82,1100.7l-2606.76-89.34
						c-29.53-1.01-53.53,20.12-53.53,47.2v1421.48v401.54c0,27.08,24,47.68,53.53,46.01l2606.76-147.05
						c22.63-1.28,40.94-21.46,40.94-45.09v-362.8V1144.88C3234.76,1121.26,3216.45,1101.48,3193.82,1100.7z"/>
					<path class="st11" d="M587.06,2772.24c-11.5,0.56-20.86-7.55-20.86-18.08V1059.6c0-10.53,9.36-18.8,20.86-18.42l2606.76,85.66
						c8.83,0.29,16,8.03,16,17.24v1482.77c0,9.22-7.18,17.07-16,17.5L587.06,2772.24z"/>
				</g>
				<g>
					
						<linearGradient id="SVGID_00000156571646887838906640000011057594357774603443_" gradientUnits="userSpaceOnUse" x1="2133.6462" y1="1448.5863" x2="1253.989" y2="3262.4243">
						<stop  offset="3.597120e-03" style="stop-color:#E38DDD"/>
						<stop  offset="1" style="stop-color:#9571F6"/>
					</linearGradient>
					<polygon style="fill:url(#SVGID_00000156571646887838906640000011057594357774603443_);" points="3105.04,2552.99 
						701.4,2658.55 701.4,1294.43 3105.04,1344.89 					"/>
					
						<linearGradient id="SVGID_00000025429334429985023420000008507933599395329468_" gradientUnits="userSpaceOnUse" x1="1901.3557" y1="1232.9404" x2="1849.4491" y2="1662.6096">
						<stop  offset="0" style="stop-color:#FF9085"/>
						<stop  offset="1" style="stop-color:#FB6FBB"/>
					</linearGradient>
					<polygon style="fill:url(#SVGID_00000025429334429985023420000008507933599395329468_);" points="3105.04,1303.62 
						701.4,1247.83 701.4,1131.33 3105.04,1200.44 					"/>
					<g>
						<path class="st11" d="M2922.49,1247.28c0,7.37-5.8,13.19-12.96,13.01c-7.17-0.18-12.98-6.31-12.98-13.69
							c0-7.38,5.81-13.2,12.98-13.01C2916.68,1233.79,2922.49,1239.92,2922.49,1247.28z"/>
						<path class="st11" d="M2975.68,1248.67c0,7.35-5.77,13.16-12.89,12.98c-7.13-0.18-12.91-6.29-12.91-13.65
							c0-7.36,5.78-13.17,12.91-12.97C2969.91,1235.21,2975.68,1241.32,2975.68,1248.67z"/>
						<path class="st11" d="M3028.58,1250.04c0,7.33-5.74,13.12-12.82,12.94c-7.09-0.18-12.83-6.27-12.83-13.61
							c0-7.34,5.75-13.13,12.83-12.94C3022.84,1236.62,3028.58,1242.72,3028.58,1250.04z"/>
					</g>
					<g class="st14">
						<polygon class="st11" points="2618.56,2335.28 753.83,2393.83 753.83,1329.87 2618.56,1365.96 						"/>
					</g>
					<g>
						<g>
							<polygon class="st15" points="3079.37,1647.75 2651.18,1645.73 2651.18,1366.59 3079.37,1374.87 							"/>
						</g>
						<polygon class="st11" points="3079.37,1697.74 2651.18,1696.87 2651.18,1675.97 3079.37,1677.3 						"/>
						<polygon class="st11" points="2920.05,1733.01 2651.18,1732.97 2651.18,1712.07 2920.05,1712.4 						"/>
					</g>
					<g>
						<g>
							<polygon class="st15" points="3079.37,2048.05 2651.18,2055.23 2651.18,1776.08 3079.37,1775.17 							"/>
						</g>
						<polygon class="st11" points="3079.37,2098.04 2651.18,2106.36 2651.18,2085.46 3079.37,2077.6 						"/>
						<polygon class="st11" points="2920.05,2136.73 2651.18,2142.47 2651.18,2121.56 2920.05,2116.12 						"/>
					</g>
					<g>
						<g>
							<polygon class="st15" points="3079.37,2448.35 2651.18,2464.72 2651.18,2185.58 3079.37,2175.47 							"/>
						</g>
						<polygon class="st11" points="3079.37,2498.34 2651.18,2515.86 2651.18,2494.96 3079.37,2477.9 						"/>
						<polygon class="st11" points="2920.05,2540.45 2651.18,2551.96 2651.18,2531.06 2920.05,2519.84 						"/>
					</g>
					<g>
						<polygon class="st11" points="2044.28,2465.8 753.83,2513.7 753.83,2443.76 2044.28,2400.16 						"/>
						<polygon class="st11" points="2618.56,2444.49 2434.45,2451.32 2434.45,2386.98 2618.56,2380.77 						"/>
						<polygon class="st11" points="2406.01,2452.38 2217.75,2459.36 2217.75,2394.3 2406.01,2387.94 						"/>
						<polygon class="st11" points="1344.21,2573.94 753.83,2598.23 753.83,2563.26 1344.21,2539.95 						"/>
					</g>
				</g>
			</g>
		</g>
		<g>
			
				<linearGradient id="SVGID_00000060710401911079853750000011946858365148356028_" gradientUnits="userSpaceOnUse" x1="624.1111" y1="2740.9468" x2="1553.6417" y2="2740.9468">
				<stop  offset="0" style="stop-color:#FFC444"/>
				<stop  offset="0.9964" style="stop-color:#F36F56"/>
			</linearGradient>
			<path style="fill:url(#SVGID_00000060710401911079853750000011946858365148356028_);" d="M649.88,3149.29l-12.17-12.75
				c-19.41-20.34-17.86-52.34,3.47-71.43l836.14-748.34l76.32,86.8l-830.39,747.85C702.07,3170.49,669.23,3169.56,649.88,3149.29z"
				/>
			
				<linearGradient id="SVGID_00000094602414186125468850000006847969116380754865_" gradientUnits="userSpaceOnUse" x1="1278.3574" y1="1981.1873" x2="2459.7383" y2="1981.1873">
				<stop  offset="0" style="stop-color:#FFC444"/>
				<stop  offset="0.9964" style="stop-color:#F36F56"/>
			</linearGradient>
			<path style="fill:url(#SVGID_00000094602414186125468850000006847969116380754865_);" d="M2318.54,1595.42
				c-210.9-259.59-584.87-301.5-834.85-84.58c-254.57,220.9-275.1,617.29-46.62,875.97c223.12,252.61,595.41,272.01,832.43,52.19
				C2502.42,2222.96,2524.64,1849.1,2318.54,1595.42z M1509.78,2321.53c-190.29-216.92-172.91-548.22,39.33-733.42
				c209.04-182.4,523-148.74,700.91,68.83c174.5,213.39,155.94,528.81-41.04,710.57
				C2009.09,2551.96,1696.32,2534.17,1509.78,2321.53z"/>
			
				<linearGradient id="SVGID_00000100345551430375670060000002681751489940930479_" gradientUnits="userSpaceOnUse" x1="624.1113" y1="2740.9463" x2="1553.6414" y2="2740.9463">
				<stop  offset="0" style="stop-color:#FFC444"/>
				<stop  offset="0.9964" style="stop-color:#F36F56"/>
			</linearGradient>
			<path style="opacity:0.3;fill:url(#SVGID_00000100345551430375670060000002681751489940930479_);" d="M1477.32,2316.76
				l-106.61,95.42c9.85,43.55,3.81,73.92-6.45,95.47c-38.6,81.08-148.64,63.23-237.19,178.38c-44.43,57.79-24.27,72.08-69.32,118.92
				c-74.48,77.43-138.74,47.84-204.24,117.26c-66.25,70.21-41.7,144.14-88.99,163.01c-20.23,8.08-52.29,5.5-105.86-35.77
				l-17.49,15.65c-21.33,19.09-22.88,51.09-3.47,71.43l12.17,12.75c19.35,20.27,52.19,21.19,73.37,2.12l830.39-747.85
				L1477.32,2316.76z"/>
			
				<linearGradient id="SVGID_00000072981557700804925510000017852178211848323257_" gradientUnits="userSpaceOnUse" x1="5108.5151" y1="821.1763" x2="4515.2173" y2="156.8854" gradientTransform="matrix(0.9968 0.0802 -0.0802 0.9968 -2734.0466 1286.8512)">
				<stop  offset="0" style="stop-color:#FFC444"/>
				<stop  offset="0.9964" style="stop-color:#F36F56"/>
			</linearGradient>
			<path style="fill:url(#SVGID_00000072981557700804925510000017852178211848323257_);" d="M2349.11,1611.89
				c-210.9-259.59-584.87-301.5-834.85-84.58c-254.57,220.9-275.1,617.29-46.62,875.97c223.12,252.61,595.41,272.01,832.43,52.19
				C2532.99,2239.44,2555.21,1865.58,2349.11,1611.89z M1540.34,2338c-190.29-216.92-172.91-548.22,39.33-733.42
				c209.04-182.4,523-148.74,700.91,68.83c174.5,213.39,155.94,528.81-41.04,710.57C2039.65,2568.43,1726.88,2550.64,1540.34,2338z"
				/>
			
				<linearGradient id="SVGID_00000085969336365483839500000011687218434580405949_" gradientUnits="userSpaceOnUse" x1="1344.1699" y1="1998.0529" x2="2458.5449" y2="1998.0529">
				<stop  offset="0" style="stop-color:#FFC444"/>
				<stop  offset="0.9964" style="stop-color:#F36F56"/>
			</linearGradient>
			<path style="fill:url(#SVGID_00000085969336365483839500000011687218434580405949_);" d="M2324.91,1633.61
				c-199.27-244.71-552.01-283.64-787.47-78.92c-239.53,208.26-258.95,581.56-44.05,825.46c210.15,238.5,561.39,257.39,785.32,50.09
				C2498.97,2226.32,2519.9,1873.06,2324.91,1633.61z M1540.34,2338c-190.29-216.92-172.91-548.22,39.33-733.42
				c209.04-182.4,523-148.74,700.91,68.83c174.5,213.39,155.94,528.81-41.04,710.57C2039.65,2568.43,1726.88,2550.64,1540.34,2338z"
				/>
		</g>
		<g>
			<g>
				<path class="st21" d="M1585.6,1190.09c33.28,16.89,75.08,1.37,93.36-34.66c18.29-36.03,6.13-78.93-27.14-95.82
					c-1.72-0.88-3.48-1.61-5.25-2.31c6.18-19.94,10.83-40.03,13.96-60.13c1.91-0.01,3.82-0.04,5.77-0.21
					c37.96-3.39,68.08-38.28,67.28-77.93c-0.8-39.65-32.23-69.04-70.19-65.65c-1.98,0.18-3.93,0.49-5.87,0.84
					c-3.97-19.65-9.4-38.84-16.26-57.42c1.75-1.02,3.48-2.08,5.18-3.27c32.47-22.76,42.85-67.67,23.17-100.31
					c-19.68-32.64-61.95-40.65-94.43-17.89c-1.66,1.17-3.23,2.43-4.78,3.7c-12.83-14.18-26.9-27.32-42.13-39.31
					c1.07-1.76,2.12-3.53,3.06-5.4c18.29-36.03,42.18-75.39,8.65-91.76c-77.58-37.86-110.86-5.43-129.15,30.6
					c-0.95,1.87-1.76,3.76-2.55,5.66c-18.67-5.21-37.58-8.81-56.6-10.79c0.12-2,0.21-4.01,0.17-6.04
					c-0.8-39.65,10.96-61.11-27.15-61.84c-83.1-1.6-111.12,34.47-110.32,74.12c0.04,2.07,0.22,4.1,0.42,6.11
					c-19.04,5.43-37.74,12.37-55.94,20.77c-0.87-1.77-1.76-3.53-2.79-5.23c-19.68-32.64-61.95-40.65-94.43-17.89
					c-32.47,22.76-42.85,67.67-23.17,100.31c1.01,1.67,2.11,3.24,3.23,4.78c-14.38,14.39-27.85,30.01-40.29,46.77
					c-1.61-1.01-3.24-2-4.97-2.87c-33.28-16.89-75.08-1.37-93.36,34.66c-18.29,36.03-6.13,78.93,27.14,95.82
					c1.72,0.88,3.48,1.61,5.25,2.31c-6.18,19.94-10.84,40.03-13.96,60.13c-1.91,0.01-3.82,0.04-5.76,0.21
					c-37.96,3.39-68.09,38.28-67.28,77.93c0.8,39.65,32.23,69.04,70.19,65.65c1.98-0.18,3.93-0.49,5.87-0.83
					c3.97,19.65,9.41,38.84,16.26,57.42c-1.75,1.02-3.48,2.08-5.18,3.27c-32.47,22.76-42.85,67.67-23.17,100.31
					c19.68,32.64,84.8,47.8,117.27,25.04c1.66-1.17-19.62-9.57-18.07-10.85c12.83,14.18,26.9,27.32,42.13,39.31
					c-1.07,1.75-2.12,3.53-3.06,5.4c-18.29,36.03-6.13,78.93,27.14,95.82c33.28,16.89,75.08,1.37,93.36-34.66
					c0.95-1.87,1.76-3.76,2.55-5.66c18.67,5.21,37.58,8.81,56.6,10.79c-0.12,2-0.21,4.01-0.17,6.04
					c0.8,39.65,32.23,69.04,70.19,65.65c37.96-3.39,68.09-38.28,67.28-77.93c-0.04-2.07-0.22-4.1-0.42-6.11
					c19.04-5.43,37.74-12.37,55.94-20.77c0.87,1.77,1.76,3.53,2.79,5.23c19.68,32.64,61.95,40.65,94.43,17.89
					c32.47-22.76,42.85-67.67,23.18-100.31c-1.01-1.67-2.11-3.23-3.23-4.78c14.38-14.39,27.85-30.01,40.29-46.77
					C1582.24,1188.23,1583.88,1189.22,1585.6,1190.09z M1170.81,1195.43c-120.82-61.32-164.94-217.08-98.55-347.9
					c66.39-130.82,218.16-187.17,338.98-125.86c120.82,61.32,164.94,217.07,98.55,347.9
					C1443.4,1200.4,1291.63,1256.75,1170.81,1195.43z"/>
				<path class="st21" d="M1666.29,996.95c37.96-3.39,68.08-38.28,67.28-77.93c-0.8-39.65-32.23-69.04-70.19-65.65
					c-1.98,0.18-3.93,0.49-5.87,0.84c-3.97-19.65-9.4-38.84-16.26-57.42c1.75-1.02,3.48-2.08,5.18-3.27
					c32.47-22.76,72.64-77.75,49.73-108.2c-43.5-57.79-88.5-32.76-120.98-10.01c-1.66,1.17-3.23,2.43-4.78,3.7
					c-12.83-14.18-26.9-27.32-42.13-39.31c1.07-1.75,2.12-3.53,3.06-5.4c9.95-19.61,10.83-41.23,4.25-59.61
					c-31.36,55.22-62.3,110.67-92.68,166.42c96.39,70.61,127.1,209.78,66.88,328.44c-51.03,100.56-152.5,157.03-251.59,149.98
					c-4.42,11.46-8.76,22.99-13.49,34.34c-12.84,30.81-27.42,60.98-42.03,91.12c9.19,1.73,18.42,3.09,27.67,4.06
					c-0.12,2-0.21,4.01-0.17,6.04c0.8,39.65,24.88,73.33,93.68,69.67c38.06-2.03,44.59-42.3,43.79-81.95
					c-0.04-2.07-0.21-4.1-0.42-6.11c19.04-5.43,37.74-12.38,55.94-20.77c0.87,1.77,1.76,3.53,2.79,5.23
					c19.68,32.64,87.91,46.5,120.39,23.74c32.48-22.76,16.89-73.52-2.79-106.16c-1.01-1.67-2.11-3.24-3.23-4.78
					c14.38-14.39,27.85-30.01,40.29-46.77c1.61,1.01,3.24,2,4.97,2.87c33.28,16.89,75.08,1.37,93.36-34.66
					c18.29-36.03,6.13-78.93-27.14-95.82c-1.72-0.88-3.48-1.61-5.25-2.31c6.18-19.94,10.83-40.03,13.96-60.13
					C1662.43,997.16,1664.35,997.13,1666.29,996.95z"/>
				
					<linearGradient id="SVGID_00000112597873139968741980000011498321446632646296_" gradientUnits="userSpaceOnUse" x1="884.2491" y1="962.6171" x2="1769.379" y2="962.6171">
					<stop  offset="0" style="stop-color:#AA80F9"/>
					<stop  offset="0.9964" style="stop-color:#6165D7"/>
				</linearGradient>
				<path style="fill:url(#SVGID_00000112597873139968741980000011498321446632646296_);" d="M1621.39,1194.15
					c33.28,16.89,75.08,1.37,93.36-34.66c18.29-36.03,6.13-78.93-27.14-95.82c-1.72-0.87-3.48-1.61-5.25-2.31
					c6.18-19.94,10.84-40.03,13.96-60.13c1.91-0.01,3.82-0.04,5.77-0.21c37.96-3.39,68.08-38.28,67.28-77.93
					c-0.8-39.65-32.23-69.04-70.19-65.65c-1.98,0.18-3.93,0.49-5.87,0.84c-3.97-19.65-9.41-38.84-16.26-57.42
					c1.75-1.02,3.48-2.08,5.18-3.27c32.47-22.76,42.85-67.67,23.17-100.31c-19.68-32.64-61.95-40.65-94.43-17.89
					c-1.66,1.17-3.23,2.43-4.78,3.7c-12.83-14.18-26.9-27.32-42.13-39.31c1.07-1.75,2.12-3.53,3.07-5.4
					c18.29-36.03,6.13-78.93-27.14-95.82c-33.28-16.89-75.08-1.37-93.36,34.66c-0.95,1.87-1.76,3.76-2.55,5.66
					c-18.67-5.21-37.58-8.81-56.6-10.79c0.12-2,0.21-4.01,0.17-6.04c-0.8-39.65-32.23-69.04-70.19-65.65
					c-37.96,3.39-68.08,38.28-67.28,77.93c0.04,2.07,0.22,4.1,0.42,6.11c-19.04,5.43-37.74,12.38-55.94,20.77
					c-0.87-1.77-1.76-3.53-2.79-5.23c-19.67-32.64-61.95-40.65-94.43-17.89c-32.47,22.76-42.85,67.67-23.17,100.31
					c1.01,1.67,2.11,3.24,3.23,4.78c-14.38,14.39-27.85,30.01-40.29,46.77c-1.61-1.01-3.24-2-4.97-2.87
					c-33.28-16.89-75.08-1.37-93.36,34.66c-18.29,36.03-6.13,78.93,27.14,95.82c1.72,0.88,3.48,1.61,5.25,2.31
					c-6.18,19.94-10.84,40.03-13.96,60.13c-1.91,0.01-3.82,0.04-5.77,0.21c-37.96,3.39-68.08,38.28-67.28,77.93
					c0.8,39.65,32.23,69.04,70.19,65.65c1.98-0.18,3.93-0.49,5.87-0.83c3.97,19.65,9.41,38.84,16.26,57.42
					c-1.75,1.02-3.48,2.08-5.18,3.27c-32.47,22.76-42.85,67.67-23.17,100.31c19.68,32.64,61.95,40.65,94.42,17.89
					c1.66-1.17,3.23-2.43,4.78-3.7c12.83,14.18,26.9,27.32,42.13,39.31c-1.07,1.76-2.12,3.53-3.06,5.4
					c-18.29,36.03-6.13,78.93,27.14,95.82c33.28,16.89,75.08,1.37,93.36-34.66c0.95-1.87,1.76-3.76,2.55-5.66
					c18.67,5.21,37.58,8.81,56.6,10.79c-0.12,2-0.21,4.01-0.17,6.04c0.8,39.65,32.23,69.04,70.19,65.65
					c37.96-3.39,68.08-38.28,67.28-77.93c-0.04-2.07-0.21-4.1-0.42-6.11c19.04-5.43,37.74-12.37,55.94-20.77
					c0.87,1.77,1.77,3.53,2.79,5.23c19.68,32.64,61.95,40.65,94.42,17.89c32.48-22.76,42.85-67.67,23.18-100.31
					c-1.01-1.67-2.11-3.24-3.23-4.78c14.38-14.39,27.85-30.01,40.29-46.77C1618.03,1192.29,1619.66,1193.28,1621.39,1194.15z
					 M1206.6,1199.49c-120.82-61.32-164.94-217.07-98.55-347.9c66.39-130.82,218.16-187.17,338.98-125.86
					c120.82,61.32,164.94,217.07,98.55,347.9C1479.19,1204.46,1327.42,1260.81,1206.6,1199.49z"/>
			</g>
			<g>
				<path class="st21" d="M921.21,1771.01c24.45,12.41,55.15,1,68.58-25.46c13.43-26.47,4.51-57.98-19.94-70.39
					c-1.27-0.64-2.56-1.18-3.85-1.7c4.54-14.65,7.96-29.41,10.25-44.17c1.4,0,2.81-0.03,4.24-0.16
					c27.89-2.49,50.01-28.12,49.43-57.25c-0.59-29.13-23.67-50.72-51.56-48.23c-1.46,0.13-2.89,0.36-4.31,0.61
					c-2.91-14.43-6.91-28.53-11.95-42.18c1.28-0.75,2.56-1.53,3.81-2.4c23.85-16.72,31.48-49.71,17.02-73.69
					c-14.45-23.98-45.51-29.86-69.36-13.14c-1.22,0.86-2.37,1.78-3.51,2.72c-9.43-10.42-19.76-20.07-30.95-28.88
					c0.79-1.29,1.56-2.6,2.25-3.97c13.43-26.47,30.99-55.38,6.35-67.4c-56.99-27.81-81.44-3.99-94.87,22.48
					c-0.7,1.37-1.3,2.76-1.87,4.16c-13.71-3.83-27.61-6.47-41.58-7.93c0.09-1.47,0.15-2.95,0.13-4.44
					c-0.59-29.12,8.05-44.89-19.94-45.43c-61.04-1.18-81.63,25.32-81.04,54.45c0.03,1.52,0.16,3.01,0.31,4.49
					c-13.99,3.99-27.72,9.09-41.1,15.26c-0.64-1.3-1.3-2.59-2.05-3.84c-14.45-23.98-45.51-29.86-69.37-13.14
					c-23.86,16.72-31.48,49.71-17.02,73.69c0.74,1.23,1.55,2.38,2.37,3.51c-10.56,10.57-20.46,22.04-29.6,34.35
					c-1.18-0.74-2.38-1.47-3.65-2.11c-24.45-12.41-55.15-1.01-68.58,25.46c-13.43,26.47-4.51,57.98,19.94,70.39
					c1.27,0.64,2.56,1.18,3.86,1.7c-4.54,14.65-7.96,29.41-10.25,44.17c-1.4,0-2.81,0.03-4.23,0.15
					c-27.89,2.49-50.02,28.12-49.43,57.25c0.59,29.13,23.67,50.72,51.56,48.23c1.46-0.13,2.89-0.36,4.31-0.61
					c2.92,14.43,6.91,28.53,11.95,42.18c-1.28,0.75-2.56,1.53-3.81,2.4c-23.86,16.72-31.48,49.71-17.02,73.69
					c14.45,23.98,62.29,35.11,86.15,18.39c1.22-0.86-14.41-7.03-13.27-7.97c9.43,10.42,19.76,20.07,30.95,28.88
					c-0.78,1.29-1.56,2.59-2.25,3.97c-13.43,26.47-4.51,57.98,19.94,70.39c24.45,12.41,55.15,1.01,68.58-25.46
					c0.7-1.37,1.3-2.76,1.87-4.16c13.71,3.83,27.61,6.47,41.58,7.93c-0.09,1.47-0.15,2.95-0.12,4.44
					c0.59,29.12,23.67,50.72,51.56,48.23c27.89-2.49,50.02-28.12,49.43-57.25c-0.03-1.52-0.16-3.01-0.31-4.49
					c13.99-3.99,27.73-9.09,41.1-15.26c0.64,1.3,1.3,2.59,2.05,3.84c14.45,23.98,45.51,29.86,69.36,13.14
					c23.86-16.72,31.48-49.71,17.02-73.69c-0.74-1.23-1.55-2.38-2.38-3.51c10.56-10.57,20.46-22.04,29.6-34.35
					C918.74,1769.64,919.94,1770.37,921.21,1771.01z M616.5,1774.93c-88.75-45.04-121.17-159.46-72.4-255.57
					c48.77-96.1,160.26-137.5,249.01-92.45c88.76,45.04,121.17,159.46,72.4,255.57C816.75,1778.58,705.26,1819.97,616.5,1774.93z"/>
				<path class="st21" d="M980.49,1629.13c27.89-2.49,50.01-28.12,49.43-57.25c-0.59-29.13-23.67-50.72-51.56-48.23
					c-1.46,0.13-2.89,0.36-4.31,0.61c-2.91-14.43-6.91-28.53-11.95-42.18c1.28-0.75,2.56-1.53,3.81-2.4
					c23.85-16.72,53.36-57.11,36.53-79.48c-31.96-42.45-65.02-24.07-88.87-7.35c-1.22,0.86-2.37,1.78-3.51,2.72
					c-9.43-10.42-19.76-20.07-30.95-28.88c0.79-1.29,1.56-2.59,2.25-3.97c7.31-14.41,7.95-30.29,3.12-43.79
					c-23.04,40.56-45.76,81.3-68.08,122.25c70.81,51.87,93.37,154.1,49.13,241.27c-37.49,73.87-112.03,115.36-184.81,110.17
					c-3.25,8.42-6.43,16.89-9.91,25.23c-9.43,22.63-20.15,44.8-30.87,66.94c6.75,1.27,13.53,2.27,20.33,2.98
					c-0.09,1.47-0.15,2.95-0.12,4.44c0.59,29.13,18.28,53.87,68.82,51.18c27.96-1.49,32.76-31.07,32.17-60.2
					c-0.03-1.52-0.16-3.01-0.31-4.49c13.99-3.99,27.73-9.09,41.1-15.26c0.64,1.3,1.3,2.59,2.05,3.84
					c14.45,23.98,64.58,34.16,88.44,17.44c23.86-16.72,12.41-54.01-2.05-77.99c-0.74-1.23-1.55-2.38-2.38-3.51
					c10.56-10.57,20.46-22.04,29.6-34.35c1.18,0.74,2.38,1.47,3.65,2.11c24.45,12.41,55.15,1.01,68.58-25.46
					c13.43-26.47,4.51-57.98-19.94-70.39c-1.27-0.64-2.56-1.18-3.86-1.7c4.54-14.65,7.96-29.41,10.25-44.17
					C977.65,1629.28,979.06,1629.26,980.49,1629.13z"/>
				
					<linearGradient id="SVGID_00000049216353257263786010000005616023200397156236_" gradientUnits="userSpaceOnUse" x1="405.9947" y1="1603.9056" x2="1056.2118" y2="1603.9056">
					<stop  offset="0" style="stop-color:#AA80F9"/>
					<stop  offset="0.9964" style="stop-color:#6165D7"/>
				</linearGradient>
				<path style="fill:url(#SVGID_00000049216353257263786010000005616023200397156236_);" d="M947.5,1773.99
					c24.45,12.41,55.15,1.01,68.58-25.46c13.43-26.47,4.51-57.98-19.94-70.39c-1.27-0.64-2.56-1.18-3.86-1.7
					c4.54-14.65,7.96-29.41,10.25-44.17c1.4,0,2.81-0.03,4.24-0.16c27.89-2.49,50.01-28.12,49.43-57.25
					c-0.59-29.13-23.67-50.72-51.56-48.23c-1.46,0.13-2.89,0.36-4.31,0.61c-2.92-14.43-6.91-28.53-11.95-42.18
					c1.28-0.75,2.56-1.53,3.81-2.4c23.85-16.72,31.48-49.71,17.02-73.69c-14.45-23.98-45.51-29.86-69.37-13.14
					c-1.22,0.86-2.37,1.78-3.51,2.72c-9.43-10.42-19.76-20.07-30.95-28.88c0.79-1.29,1.56-2.6,2.25-3.97
					c13.43-26.47,4.51-57.98-19.94-70.39c-24.45-12.41-55.15-1.01-68.58,25.46c-0.7,1.37-1.3,2.76-1.87,4.16
					c-13.71-3.83-27.61-6.47-41.58-7.93c0.09-1.47,0.15-2.95,0.12-4.44c-0.59-29.13-23.67-50.72-51.56-48.23
					c-27.89,2.49-50.01,28.12-49.43,57.25c0.03,1.52,0.16,3.01,0.31,4.49c-13.99,3.99-27.72,9.09-41.1,15.26
					c-0.64-1.3-1.3-2.59-2.05-3.84c-14.45-23.98-45.51-29.86-69.37-13.14c-23.86,16.72-31.48,49.71-17.02,73.69
					c0.74,1.23,1.55,2.38,2.38,3.51c-10.56,10.57-20.46,22.04-29.6,34.35c-1.18-0.74-2.38-1.47-3.65-2.11
					c-24.45-12.41-55.15-1.01-68.58,25.46c-13.43,26.47-4.51,57.98,19.94,70.39c1.27,0.64,2.56,1.18,3.86,1.7
					c-4.54,14.65-7.96,29.41-10.25,44.17c-1.4,0-2.81,0.03-4.24,0.15c-27.89,2.49-50.01,28.12-49.43,57.25
					c0.59,29.13,23.67,50.72,51.56,48.23c1.46-0.13,2.89-0.36,4.31-0.61c2.92,14.43,6.91,28.53,11.95,42.18
					c-1.28,0.75-2.56,1.53-3.81,2.4c-23.86,16.72-31.48,49.71-17.02,73.69c14.45,23.98,45.51,29.86,69.36,13.14
					c1.22-0.86,2.37-1.78,3.51-2.72c9.43,10.42,19.76,20.07,30.95,28.88c-0.79,1.29-1.56,2.6-2.25,3.97
					c-13.43,26.47-4.51,57.98,19.94,70.39c24.45,12.41,55.15,1.01,68.58-25.46c0.7-1.37,1.3-2.76,1.87-4.16
					c13.71,3.83,27.61,6.47,41.58,7.93c-0.09,1.47-0.15,2.95-0.13,4.44c0.59,29.12,23.67,50.72,51.56,48.23
					c27.89-2.49,50.02-28.12,49.43-57.25c-0.03-1.52-0.16-3.01-0.31-4.49c13.99-3.99,27.72-9.09,41.1-15.26
					c0.64,1.3,1.3,2.59,2.05,3.84c14.45,23.98,45.51,29.86,69.36,13.14c23.86-16.72,31.48-49.71,17.02-73.69
					c-0.74-1.23-1.55-2.38-2.38-3.51c10.56-10.57,20.46-22.04,29.6-34.35C945.03,1772.63,946.23,1773.35,947.5,1773.99z
					 M642.79,1777.92c-88.75-45.04-121.17-159.46-72.4-255.57c48.77-96.1,160.26-137.5,249.01-92.45
					c88.76,45.04,121.17,159.46,72.4,255.57C843.04,1781.56,731.55,1822.96,642.79,1777.92z"/>
			</g>
		</g>
		<g>
			<g>
				<g>
					<g>
						
							<linearGradient id="SVGID_00000156585416747694633700000015384367862334690191_" gradientUnits="userSpaceOnUse" x1="2783.252" y1="2660.1992" x2="3421.7043" y2="2660.1992" gradientTransform="matrix(0.9993 0.0372 -0.0372 0.9993 -147.3405 -31.9133)">
							<stop  offset="0" style="stop-color:#444B8C"/>
							<stop  offset="0.9964" style="stop-color:#26264F"/>
						</linearGradient>
						<path style="fill:url(#SVGID_00000156585416747694633700000015384367862334690191_);" d="M3072,2242.57l84.51,948.35
							c1.28,14.36-8.69,27.13-22.18,28.37l-457.26,47.1c-27.36,1.46-41.83-13.38-43.06-28.3l-81.11-984.63
							c-1.2-14.54,12.39-28.24,39.42-29.23l453.06-6.66C3058.78,2217.32,3070.75,2228.56,3072,2242.57z"/>
						
							<linearGradient id="SVGID_00000071522907951068704040000010040259351888156328_" gradientUnits="userSpaceOnUse" x1="3059.979" y1="2813.2251" x2="3148.1802" y2="2568.3916" gradientTransform="matrix(0.9993 0.0372 -0.0372 0.9993 -147.3405 -31.9133)">
							<stop  offset="0" style="stop-color:#444B8C"/>
							<stop  offset="0.9964" style="stop-color:#26264F"/>
						</linearGradient>
						<path style="fill:url(#SVGID_00000071522907951068704040000010040259351888156328_);" d="M3092.77,2240.22l85.28,954.03
							c1.29,14.45-8.73,27.29-22.3,28.54l-474.46,43.79c-14.55,1.34-27.49-9.84-28.73-24.85l-81.83-990.57
							c-1.21-14.62,9.64-26.81,24.08-27.09l471.18-9C3079.47,2214.81,3091.51,2226.13,3092.77,2240.22z"/>
						<path class="st11" d="M3082.22,2292.86l78.87,884.27c1.2,13.48-8.17,25.46-20.85,26.61l-446.08,40.51
							c-13.54,1.23-25.58-9.2-26.74-23.17L2591.55,2305c-1.13-13.64,8.97-25.05,22.41-25.36l443.23-10.2
							C3069.79,2269.15,3081.05,2279.69,3082.22,2292.86z"/>
						<g>
							
								<linearGradient id="SVGID_00000065059017933855919290000002014359563552572547_" gradientUnits="userSpaceOnUse" x1="2713.2502" y1="2547.676" x2="3045.2996" y2="2065.917">
								<stop  offset="0" style="stop-color:#FF9085"/>
								<stop  offset="1" style="stop-color:#FB6FBB"/>
							</linearGradient>
							<path style="fill:url(#SVGID_00000065059017933855919290000002014359563552572547_);" d="M3082.22,2292.86
								c-1.18-13.17-12.43-23.71-25.04-23.42l-443.22,10.2c-13.44,0.31-23.54,11.72-22.41,25.36l10.86,131.11l491.53-11.88
								L3082.22,2292.86z"/>
						</g>
					</g>
					
						<linearGradient id="SVGID_00000034784081341655074370000010825585688828848769_" gradientUnits="userSpaceOnUse" x1="3080.4209" y1="2131.3113" x2="2538.4229" y2="3599.2227" gradientTransform="matrix(0.9993 0.0372 -0.0372 0.9993 -147.3405 -31.9133)">
						<stop  offset="0" style="stop-color:#FFC444"/>
						<stop  offset="0.9964" style="stop-color:#F36F56"/>
					</linearGradient>
					<path style="fill:url(#SVGID_00000034784081341655074370000010825585688828848769_);" d="M2845.57,2248.28
						c0.43,4.97-3.14,9.09-7.98,9.2c-4.84,0.11-9.11-3.85-9.54-8.83c-0.43-4.98,3.15-9.1,7.99-9.19
						C2840.88,2239.36,2845.14,2243.31,2845.57,2248.28z"/>
				</g>
			</g>
			<g>
				<g>
					
						<linearGradient id="SVGID_00000128443502599131732660000012901444870448871100_" gradientUnits="userSpaceOnUse" x1="2078.7185" y1="2578.1423" x2="2332.082" y2="3127.324" gradientTransform="matrix(1 0 0.0972 0.995 399.2297 -20.4976)">
						<stop  offset="3.597120e-03" style="stop-color:#E38DDD"/>
						<stop  offset="1" style="stop-color:#9571F6"/>
					</linearGradient>
					<polygon style="fill:url(#SVGID_00000128443502599131732660000012901444870448871100_);" points="2906.88,2787.34 
						2685.1,2798.29 2654.48,2484.85 2877.49,2479.16 					"/>
					
						<linearGradient id="SVGID_00000110457505072925751910000001806477342126538172_" gradientUnits="userSpaceOnUse" x1="2207.8162" y1="2391.0569" x2="2499.4565" y2="3023.2063" gradientTransform="matrix(1 0 0.0972 0.995 399.2297 -20.4976)">
						<stop  offset="3.597120e-03" style="stop-color:#E38DDD"/>
						<stop  offset="1" style="stop-color:#9571F6"/>
					</linearGradient>
					<polygon style="fill:url(#SVGID_00000110457505072925751910000001806477342126538172_);" points="3071.36,2779.22 
						2941.07,2785.65 2911.88,2478.28 3042.87,2474.94 					"/>
					
						<linearGradient id="SVGID_00000148624252011379857780000001283793628977932713_" gradientUnits="userSpaceOnUse" x1="2093.3396" y1="2729.2737" x2="2295.197" y2="3166.813" gradientTransform="matrix(1 0 0.0972 0.995 399.2297 -20.4976)">
						<stop  offset="3.597120e-03" style="stop-color:#E38DDD"/>
						<stop  offset="1" style="stop-color:#9571F6"/>
					</linearGradient>
					<polygon style="fill:url(#SVGID_00000148624252011379857780000001283793628977932713_);" points="3094.32,3024.45 
						2709.77,3050.87 2689.08,2839.07 3075.06,2818.81 					"/>
					
						<linearGradient id="SVGID_00000146464427008946751680000014450277841225539253_" gradientUnits="userSpaceOnUse" x1="2130.1558" y1="2997.7573" x2="2264.7566" y2="3289.5139" gradientTransform="matrix(1 0 0.0972 0.995 399.2297 -20.4976)">
						<stop  offset="3.597120e-03" style="stop-color:#E38DDD"/>
						<stop  offset="1" style="stop-color:#9571F6"/>
					</linearGradient>
					<polygon style="fill:url(#SVGID_00000146464427008946751680000014450277841225539253_);" points="3106.3,3152.47 
						2722.65,3182.7 2713.38,3087.82 3097.67,3060.34 					"/>
				</g>
			</g>
			<g class="st32">
				<path class="st11" d="M2978.77,2895.14c-46-160.7-180.1-144.63-220.21-289.85c-32.94-119.26,43.01-182.14-3.06-281.98
					c-21.67-46.96-59.63-78.71-98.99-100.41l-61.7,1.18c-14.44,0.28-25.29,12.46-24.08,27.09l81.83,990.57
					c1.24,15.01,14.18,26.19,28.73,24.85l389.01-35.9c-24.87-31.56-48.48-70.17-64.86-116.56
					C2970.77,3015.93,3004.2,2984.01,2978.77,2895.14z"/>
			</g>
		</g>
	</g>
</g>
</svg>
